# xmcd
#
# Track frame offsets:
# 150
# 14918
# 26292
# 41051
# 50457
# 62608
# 73836
#
# Disc length: 1213 seconds
#
#
# Revision: 0
# Processed by: cddbd v1.5.2PL0 Copyright (c) Steve Scherf et al.
# Submitted via: FreeRIP 2.96 
#
DISCID=5f04bb07
DTITLE=Bayou - Bayou
DYEAR=2007
DGENRE=Country
TTITLE0=Fine Fine Fine
TTITLE1=Eunice Two-Step
TTITLE2=Grand Texas
TTITLE3=French Two-Step
TTITLE4=Chris Boogie
TTITLE5=Amedée Two-Step
TTITLE6=Les Zydeco Sont Pas Salé
EXTD=
EXTT0=
EXTT1=
EXTT2=
EXTT3=
EXTT4=
EXTT5=
EXTT6=
PLAYORDER=
